<?xml version="1.0" encoding="utf-8"?>
<!-- Generator: Adobe Illustrator 23.1.0, SVG Export Plug-In . SVG Version: 6.00 Build 0)  -->
<svg version="1.1" id="Layer_1" xmlns="http://www.w3.org/2000/svg" xmlns:xlink="http://www.w3.org/1999/xlink" x="0px" y="0px"
	 viewBox="0 0 1536 1536" style="enable-background:new 0 0 1536 1536;" xml:space="preserve">
<style type="text/css">
	.st0{fill:#FFFFFF;}
</style>
<path id="XMLID_1_" class="st0" d="M1195.06,1275.75c-280.42,235.86-698.95,199.73-934.81-80.68S60.52,496.11,340.94,260.25
	s698.95-199.73,934.81,80.68l80-67.28C1082.73-50.95,598.25-92.76,273.65,180.26s-366.41,757.49-93.39,1082.09
	s757.49,366.41,1082.09,93.39L1195.06,1275.75z"/>
<path id="XMLID_3_" class="st0" d="M343.86,544.64c123.36-234.24,413.26-324.14,647.5-200.78s324.14,413.26,200.78,647.5
	s-413.26,324.14-647.5,200.78l-35.19,66.82c271.15,142.79,606.72,38.74,749.51-232.41s38.74-606.72-232.41-749.51
	S419.83,238.3,277.04,509.45L343.86,544.64z"/>
<path id="XMLID_5_" class="st0" d="M986.48,1036.73c-148.41,120.66-366.55,98.16-487.21-50.25s-98.16-366.55,50.25-487.21
	s366.55-98.16,487.21,50.25l42.33-34.42C939.39,343.3,686.89,317.26,515.1,456.94s-197.84,392.17-58.16,563.97
	s392.17,197.84,563.97,58.16L986.48,1036.73z"/>
<path id="XMLID_7_" class="st0" d="M682.35,532.89c129.85-47.31,273.46,19.61,320.77,149.46s-19.61,273.46-149.46,320.77
	s-273.46-19.61-320.77-149.46l-37.04,13.49c54.76,150.31,220.99,227.76,371.3,173c150.31-54.76,227.76-220.99,173-371.3
	c-54.76-150.31-220.99-227.76-371.3-173L682.35,532.89z"/>
<path id="XMLID_9_" class="st0" d="M895.84,895.84c-70.6,70.6-185.07,70.6-255.68,0s-70.6-185.07,0-255.68s185.07-70.6,255.68,0
	l20.14-20.14c-81.73-81.73-214.23-81.73-295.95,0s-81.73,214.23,0,295.95s214.23,81.73,295.95,0L895.84,895.84z"/>
</svg>
